<svg width="678" height="285" viewBox="0 0 678 285" fill="none" xmlns="http://www.w3.org/2000/svg">
<path fill-rule="evenodd" clip-rule="evenodd" d="M200 0H0V200H100V100H200V0Z" fill="#43A047"/>
<path d="M217.46 198.9H241.96V239.5C236.36 243.513 229.92 246.593 222.64 248.74C215.36 250.887 208.08 251.96 200.8 251.96C190.533 251.96 181.293 249.813 173.08 245.52C164.867 241.133 158.427 235.067 153.76 227.32C149.093 219.573 146.76 210.8 146.76 201C146.76 191.2 149.093 182.427 153.76 174.68C158.427 166.933 164.913 160.913 173.22 156.62C181.527 152.233 190.907 150.04 201.36 150.04C210.507 150.04 218.72 151.58 226 154.66C233.28 157.74 239.347 162.173 244.2 167.96L226.56 183.92C219.933 176.64 212 173 202.76 173C194.36 173 187.593 175.567 182.46 180.7C177.327 185.74 174.76 192.507 174.76 201C174.76 206.413 175.927 211.267 178.26 215.56C180.593 219.76 183.86 223.073 188.06 225.5C192.26 227.833 197.067 229 202.48 229C207.8 229 212.793 227.927 217.46 225.78V198.9ZM296.354 251.26C288.234 251.26 280.908 249.58 274.374 246.22C267.841 242.86 262.708 238.193 258.974 232.22C255.334 226.247 253.514 219.48 253.514 211.92C253.514 204.453 255.334 197.733 258.974 191.76C262.708 185.787 267.794 181.167 274.234 177.9C280.768 174.54 288.141 172.86 296.354 172.86C304.568 172.86 311.941 174.54 318.474 177.9C325.008 181.167 330.094 185.787 333.734 191.76C337.374 197.64 339.194 204.36 339.194 211.92C339.194 219.48 337.374 226.247 333.734 232.22C330.094 238.193 325.008 242.86 318.474 246.22C311.941 249.58 304.568 251.26 296.354 251.26ZM296.354 230.12C301.021 230.12 304.848 228.533 307.834 225.36C310.821 222.093 312.314 217.613 312.314 211.92C312.314 206.32 310.821 201.933 307.834 198.76C304.848 195.587 301.021 194 296.354 194C291.688 194 287.861 195.587 284.874 198.76C281.888 201.933 280.394 206.32 280.394 211.92C280.394 217.613 281.888 222.093 284.874 225.36C287.861 228.533 291.688 230.12 296.354 230.12ZM380.497 173.42V194.98H423.757V216.4H380.497V250H352.777V152H429.637V173.42H380.497ZM442.601 152H470.321V250H442.601V152ZM532.882 223.96H517.762V250H490.042V152H534.842C543.709 152 551.409 153.493 557.942 156.48C564.476 159.373 569.516 163.573 573.062 169.08C576.609 174.493 578.382 180.887 578.382 188.26C578.382 195.353 576.702 201.56 573.342 206.88C570.076 212.107 565.362 216.213 559.202 219.2L580.342 250H550.662L532.882 223.96ZM550.382 188.26C550.382 183.687 548.936 180.14 546.042 177.62C543.149 175.1 538.856 173.84 533.162 173.84H517.762V202.54H533.162C538.856 202.54 543.149 201.327 546.042 198.9C548.936 196.38 550.382 192.833 550.382 188.26ZM672.355 228.58V250H593.675V152H670.535V173.42H621.115V189.94H664.655V210.66H621.115V228.58H672.355Z" fill="black"/>
</svg>
